<svg width="118" height="27" viewBox="0 0 118 27" fill="none" xmlns="http://www.w3.org/2000/svg">
<path d="M39.6761 20C43.6648 20 45.9723 17.5263 45.9723 13.4354C45.9723 9.36364 43.6648 6.90909 39.8104 6.90909H35.4382V20H39.6761ZM37.4134 18.2741V8.63494H39.6889C42.5526 8.63494 44.0291 10.348 44.0291 13.4354C44.0291 16.5355 42.5526 18.2741 39.5675 18.2741H37.4134ZM48.4284 20H56.7125V18.2997H50.4036V14.2919H56.2076V12.598H50.4036V8.60938H56.6358V6.90909H48.4284V20ZM60.4183 6.90909H58.2834L62.9943 20H65.2763L69.9872 6.90909H67.8523L64.2088 17.571H64.0618L60.4183 6.90909ZM79.0176 10.348H80.9224C80.8649 8.25142 79.0112 6.73011 76.3521 6.73011C73.725 6.73011 71.7115 8.23224 71.7115 10.4886C71.7115 12.3104 73.0154 13.3778 75.1184 13.9467L76.6653 14.3686C78.0652 14.7393 79.1454 15.1996 79.1454 16.3629C79.1454 17.6413 77.9245 18.4851 76.2434 18.4851C74.7221 18.4851 73.4565 17.8075 73.3414 16.3821H71.3599C71.4877 18.7536 73.3223 20.2173 76.2562 20.2173C79.3308 20.2173 81.1014 18.6001 81.1014 16.3821C81.1014 14.0234 78.9984 13.1094 77.3365 12.7003L76.0581 12.3679C75.0353 12.1058 73.6738 11.6264 73.6802 10.3736C73.6802 9.26136 74.6966 8.43679 76.3074 8.43679C77.8095 8.43679 78.877 9.13991 79.0176 10.348ZM83.4616 20H91.7457V18.2997H85.4368V14.2919H91.2408V12.598H85.4368V8.60938H91.669V6.90909H83.4616V20ZM105.18 11.1662C104.733 8.36648 102.54 6.73011 99.7726 6.73011C96.3848 6.73011 93.8855 9.26776 93.8855 13.4545C93.8855 17.6413 96.372 20.179 99.7726 20.179C102.649 20.179 104.752 18.3764 105.18 15.7876L103.186 15.7812C102.847 17.456 101.441 18.3764 99.7853 18.3764C97.5417 18.3764 95.8478 16.657 95.8478 13.4545C95.8478 10.2777 97.5353 8.53267 99.7917 8.53267C101.46 8.53267 102.86 9.4723 103.186 11.1662H105.18ZM106.898 8.60938H110.976V20H112.945V8.60938H117.029V6.90909H106.898V8.60938Z" fill="#F3F3F3"/>
<g clip-path="url(#clip0_1101_454)">
<path fill-rule="evenodd" clip-rule="evenodd" d="M1.94297 12.4087L9.49998 16.0833L17.0258 12.4238C17.5118 8.4672 12.6088 1 9.49998 1C6.50231 1 1.21174 7.24514 1.94297 12.4087ZM13.8398 11.2426L13.8407 11.2442L13.8415 11.2456C14.0062 11.5175 14.1666 11.7825 14.3227 12.0339C13.3742 13.6338 11.5699 14.7143 9.49998 14.7143C7.33915 14.7143 5.46774 13.5368 4.55731 11.8202C5.87789 9.62863 7.63293 6.77143 9.49998 6.77143C11.1332 6.77143 12.6041 9.20131 13.8397 11.2425L13.8398 11.2426Z" fill="#ECEDF0"/>
<path d="M8.37574 18.3757C8.24394 18.3757 8.11846 18.3982 7.99941 18.4433C7.88036 18.4841 7.77189 18.5434 7.67412 18.6212C7.58057 18.6948 7.49975 18.7828 7.43169 18.885C7.3679 18.9873 7.32328 19.0977 7.29773 19.2164H9.46018C9.43463 19.0977 9.38785 18.9873 9.31985 18.885C9.25179 18.7828 9.16887 18.6948 9.07104 18.6212C8.97749 18.5434 8.87118 18.4841 8.75213 18.4433C8.63302 18.3982 8.5076 18.3757 8.37574 18.3757Z" fill="#ECEDF0"/>
<path fill-rule="evenodd" clip-rule="evenodd" d="M17.2031 12.787L9.5 16.5327L1.79016 12.7837C0.663725 13.4844 0 14.3449 0 15.275C0 15.3476 0.00404232 15.4197 0.0120297 15.4914V22.4286C0.0120297 22.7442 0.281227 23 0.613297 23H18.3867C18.7188 23 18.988 22.7442 18.988 22.4286V15.1143H18.9814C18.9098 14.2473 18.2612 13.4465 17.2031 12.787ZM16.0587 17.8173V17.2652H15.593V16.308H15.019V17.2652H14.5533V17.8173H15.019V21.0508H15.593V17.8173H16.0587ZM9.83653 20.2348C9.69192 20.4803 9.48996 20.6786 9.23051 20.83C8.9754 20.9772 8.69046 21.0508 8.37575 21.0508C8.14186 21.0508 7.92288 21.01 7.71875 20.9281C7.51462 20.8423 7.33604 20.7257 7.18296 20.5784C7.02982 20.4312 6.90866 20.2593 6.81938 20.063C6.7343 19.8667 6.69179 19.6581 6.69179 19.4372C6.69179 19.2122 6.7343 19.0016 6.81938 18.8052C6.90866 18.6089 7.02982 18.4371 7.18296 18.2898C7.33604 18.1425 7.51462 18.028 7.71875 17.9462C7.92288 17.8603 8.14186 17.8173 8.37575 17.8173C8.60544 17.8173 8.82231 17.8603 9.02644 17.9462C9.23051 18.028 9.40915 18.1425 9.56223 18.2898C9.71531 18.4371 9.83442 18.6089 9.91944 18.8052C10.0087 19.0016 10.0534 19.2122 10.0534 19.4372C10.0534 19.5435 10.0428 19.654 10.0215 19.7685H7.32967C7.40194 19.9812 7.5338 20.1571 7.72512 20.2961C7.91651 20.4312 8.13338 20.4987 8.37575 20.4987C8.55866 20.4987 8.72659 20.4598 8.87967 20.3821C9.03703 20.3044 9.16461 20.2 9.26244 20.0692L9.83653 20.2348ZM13.9056 20.1244C13.7695 20.3984 13.5654 20.6213 13.2933 20.7932C13.0253 20.9649 12.7213 21.0508 12.3811 21.0508C12.1514 21.0508 11.9345 21.01 11.7305 20.9281C11.5263 20.8423 11.3477 20.7257 11.1946 20.5784C11.0415 20.4312 10.9203 20.2593 10.831 20.063C10.7459 19.8667 10.7034 19.6581 10.7034 19.4372C10.7034 19.2122 10.7459 19.0016 10.831 18.8052C10.9203 18.6089 11.0415 18.4371 11.1946 18.2898C11.3477 18.1425 11.5263 18.028 11.7305 17.9462C11.9345 17.8603 12.1514 17.8173 12.3811 17.8173C12.7213 17.8173 13.0253 17.9033 13.2933 18.0751C13.5654 18.2469 13.7695 18.4698 13.9056 18.7439L13.3443 18.9095C13.2465 18.75 13.1125 18.6211 12.9424 18.5229C12.7765 18.4248 12.5916 18.3757 12.3875 18.3757C12.2344 18.3757 12.0898 18.4043 11.9537 18.4616C11.8218 18.5148 11.7049 18.5904 11.6029 18.6886C11.505 18.7827 11.4264 18.8952 11.3668 19.0261C11.3116 19.1529 11.2839 19.2899 11.2839 19.4372C11.2839 19.5844 11.3116 19.7235 11.3668 19.8544C11.4264 19.9812 11.505 20.0937 11.6029 20.1919C11.7049 20.2859 11.8218 20.3616 11.9537 20.4189C12.0898 20.472 12.2344 20.4987 12.3875 20.4987C12.5916 20.4987 12.7765 20.4496 12.9424 20.3514C13.1125 20.2532 13.2465 20.1223 13.3443 19.9587L13.9056 20.1244ZM3.1563 20.7657C2.91355 20.6257 2.76437 20.4208 2.70815 20.1463L3.41696 19.9472C3.42035 19.9786 3.42592 20.0091 3.43372 20.0387L3.43489 20.0432L3.43678 20.0474C3.46098 20.1011 3.50377 20.1474 3.56014 20.1876L3.56343 20.1899L3.56702 20.1919C3.6323 20.2263 3.7219 20.2517 3.83198 20.2701C3.94429 20.289 4.09346 20.298 4.27803 20.298C4.46978 20.298 4.62473 20.2829 4.74007 20.2507C4.85089 20.2197 4.93941 20.1808 4.99944 20.1309L4.99979 20.1306C5.06318 20.0771 5.1066 20.0161 5.12271 19.9473C5.13626 19.8893 5.14308 19.8312 5.14308 19.7729C5.14308 19.6663 5.12673 19.5753 5.08938 19.5044C5.05244 19.4341 4.99426 19.3761 4.91795 19.3296C4.84262 19.2779 4.74616 19.2341 4.63046 19.1973C4.52338 19.1555 4.39147 19.1047 4.23476 19.0451L4.03611 18.9642L4.03564 18.964C3.89631 18.9099 3.74439 18.8527 3.57992 18.7926C3.42147 18.7347 3.2753 18.6565 3.14122 18.5582C3.00867 18.455 2.89681 18.3287 2.80574 18.1788C2.71752 18.0277 2.6715 17.8341 2.6715 17.5949C2.6715 17.2131 2.80465 16.9179 3.06733 16.7023L3.06741 16.7021C3.33638 16.4807 3.73968 16.3651 4.2875 16.3651C4.77127 16.3651 5.13918 16.4424 5.39748 16.5909C5.63879 16.7296 5.78857 16.9325 5.84745 17.2043L5.13729 17.4113C5.13222 17.3789 5.12381 17.3474 5.11198 17.3168C5.09379 17.2519 5.04661 17.2027 4.98092 17.1677C4.9206 17.1323 4.83313 17.107 4.7244 17.0888C4.61799 17.0698 4.47172 17.0608 4.2875 17.0608C4.09575 17.0608 3.9408 17.0759 3.82546 17.1081C3.71332 17.1395 3.62209 17.1816 3.55627 17.2372C3.49289 17.2908 3.44946 17.3517 3.43335 17.4205C3.4198 17.4785 3.41298 17.5367 3.41298 17.5949C3.41298 17.7016 3.42933 17.7925 3.46668 17.8635C3.50338 17.9333 3.56104 17.9939 3.63661 18.0461L3.63812 18.0472L3.63969 18.0481C3.71304 18.0925 3.80485 18.136 3.91423 18.1788L3.91615 18.1795L3.91811 18.1801C4.02995 18.2156 4.1611 18.2631 4.31173 18.3227L4.31258 18.323L4.51162 18.3951C4.65007 18.4489 4.80113 18.5087 4.96483 18.5745L4.96574 18.5749L4.96667 18.5753C5.12471 18.6331 5.27068 18.7139 5.40472 18.8181L5.40587 18.8191L5.40706 18.8199C5.54481 18.9167 5.65922 19.0422 5.75009 19.1977L5.75032 19.1981L5.75056 19.1985C5.83841 19.3432 5.88456 19.5334 5.88456 19.7729C5.88456 20.1548 5.7514 20.45 5.48872 20.6656C5.22627 20.881 4.8263 20.9937 4.27803 20.9937C3.78788 20.9937 3.4161 20.9156 3.1563 20.7657Z" fill="#ECEDF0"/>
<path d="M1.80951 15.3845L9.49999 17.0768L17.1905 15.3845V21.3076H1.80951V15.3845Z" fill="#ECEDF0"/>
</g>
<defs>
<clipPath id="clip0_1101_454">
<rect width="19" height="22" fill="white" transform="translate(0 1)"/>
</clipPath>
</defs>
</svg>
